<svg width=" 100%" height=" 100%" viewBox="0 0 24 24" fill="none" xmlns="http://www.w3.org/2000/svg">
<path d="M12 1.99988C6.486 1.99988 2 6.48588 2 11.9999C2 17.5139 6.486 21.9999 12 21.9999C17.514 21.9999 22 17.5139 22 11.9999C22 6.48588 17.514 1.99988 12 1.99988ZM12 19.9999C7.589 19.9999 4 16.4109 4 11.9999C4 7.58888 7.589 3.99988 12 3.99988C16.411 3.99988 20 7.58888 20 11.9999C20 16.4109 16.411 19.9999 12 19.9999Z" fill="currentColor"/>
<path d="M11 11.6001C11 11.2688 11.2686 11.0001 11.6 11.0001H12.4C12.7314 11.0001 13 11.2688 13 11.6001V16.4001C13 16.7315 12.7314 17.0001 12.4 17.0001H11.6C11.2686 17.0001 11 16.7315 11 16.4001V11.6001ZM11 7.60012C11 7.26875 11.2686 7.00012 11.6 7.00012H12.4C12.7314 7.00012 13 7.26875 13 7.60012V8.40012C13 8.73149 12.7314 9.00012 12.4 9.00012H11.6C11.2686 9.00012 11 8.73149 11 8.40012V7.60012Z" fill="currentColor"/>
</svg>